<svg width="16" height="16" viewBox="0 0 16 16" fill="none" xmlns="http://www.w3.org/2000/svg">
    <path d="M2.55806 2.44194C2.67527 2.32473 2.83424 2.25888 3 2.25888C3.16576 2.25888 3.32473 2.32473 3.44194 2.44194L13.1647 12.1647C13.2819 12.2819 13.3477 12.4408 13.3477 12.6066C13.3477 12.7724 13.2819 12.9313 13.1647 13.0485C13.0474 13.1658 12.8885 13.2316 12.7227 13.2316C12.557 13.2316 12.398 13.1658 12.2808 13.0485L2.55806 3.32583C2.44085 3.20861 2.375 3.04964 2.375 2.88388C2.375 2.71812 2.44085 2.55915 2.55806 2.44194Z" fill="#393939"/>
    <path d="M13.0485 2.44194C13.1657 2.55915 13.2316 2.71812 13.2316 2.88388C13.2316 3.04964 13.1657 3.20861 13.0485 3.32582L3.32582 13.0485C3.20861 13.1658 3.04964 13.2316 2.88388 13.2316C2.71812 13.2316 2.55915 13.1658 2.44194 13.0485C2.32473 12.9313 2.25888 12.7724 2.25888 12.6066C2.25888 12.4408 2.32473 12.2819 2.44194 12.1647L12.1647 2.44194C12.2819 2.32473 12.4408 2.25888 12.6066 2.25888C12.7724 2.25888 12.9313 2.32473 13.0485 2.44194Z" fill="#393939"/>
</svg>
