<svg width="16" height="16" viewBox="0 0 16 16" fill="none" xmlns="http://www.w3.org/2000/svg">
<path d="M0.5 4.625C0.5 4.45924 0.565848 4.30027 0.683058 4.18306C0.800269 4.06585 0.95924 4 1.125 4H14.875C15.0408 4 15.1997 4.06585 15.3169 4.18306C15.4342 4.30027 15.5 4.45924 15.5 4.625C15.5 4.79076 15.4342 4.94973 15.3169 5.06694C15.1997 5.18415 15.0408 5.25 14.875 5.25H1.125C0.95924 5.25 0.800269 5.18415 0.683058 5.06694C0.565848 4.94973 0.5 4.79076 0.5 4.625Z" fill="#393939"/>
<path d="M0.5 8.375C0.5 8.20924 0.565848 8.05027 0.683058 7.93306C0.800269 7.81585 0.95924 7.75 1.125 7.75H14.875C15.0408 7.75 15.1997 7.81585 15.3169 7.93306C15.4342 8.05027 15.5 8.20924 15.5 8.375C15.5 8.54076 15.4342 8.69973 15.3169 8.81694C15.1997 8.93415 15.0408 9 14.875 9H1.125C0.95924 9 0.800269 8.93415 0.683058 8.81694C0.565848 8.69973 0.5 8.54076 0.5 8.375Z" fill="#393939"/>
<path d="M0.5 12.125C0.5 11.9592 0.565848 11.8003 0.683058 11.6831C0.800269 11.5658 0.95924 11.5 1.125 11.5H7.875C8.04076 11.5 8.19973 11.5658 8.31694 11.6831C8.43415 11.8003 8.5 11.9592 8.5 12.125C8.5 12.2908 8.43415 12.4497 8.31694 12.5669C8.19973 12.6842 8.04076 12.75 7.875 12.75H1.125C0.95924 12.75 0.800269 12.6842 0.683058 12.5669C0.565848 12.4497 0.5 12.2908 0.5 12.125Z" fill="#393939"/>
</svg>
